<?xml version="1.0" encoding="utf-8"?>
<!-- Generator: Adobe Illustrator 16.0.0, SVG Export Plug-In . SVG Version: 6.00 Build 0)  -->
<!DOCTYPE svg PUBLIC "-//W3C//DTD SVG 1.1//EN" "http://www.w3.org/Graphics/SVG/1.1/DTD/svg11.dtd">
<svg version="1.1" id="Layer_1" xmlns="http://www.w3.org/2000/svg" xmlns:xlink="http://www.w3.org/1999/xlink" x="0px" y="0px"
	 width="283.465px" height="283.465px" viewBox="0 0 283.465 283.465" enable-background="new 0 0 283.465 283.465"
	 xml:space="preserve">
<path fill="none" stroke="#000000" stroke-width="4.7071" stroke-miterlimit="3.8637" d="M9.425,141.728
	c0-73.723,59.765-133.48,133.49-133.48c73.721,0,133.482,59.757,133.482,133.48c0,73.729-59.762,133.49-133.482,133.49
	C69.19,275.218,9.425,215.457,9.425,141.728L9.425,141.728z"/>
<path fill-rule="evenodd" clip-rule="evenodd" fill="#FFFFFF" d="M80.624,140.076c0-34.39,27.893-62.281,62.292-62.281
	c34.406,0,62.283,27.891,62.283,62.281c0,34.402-27.877,62.288-62.283,62.288C108.517,202.364,80.624,174.479,80.624,140.076
	L80.624,140.076z M81.418,140.076c0-33.958,27.542-61.481,61.497-61.481c33.958,0,61.489,27.523,61.489,61.481
	c0,33.959-27.531,61.497-61.489,61.497C108.96,201.573,81.418,174.035,81.418,140.076L81.418,140.076z M269.83,139.356v1.588H15.993
	v-1.588l0,0 M142.121,13.158h1.588v253.845h-1.588V13.158L142.121,13.158z M97.757,201.854l-0.81-2.506
	c-5.55,2.195-17.535-2.207-27.006-26.127c-9.828-24.826-3.012-35.174,1.891-37.116l-0.805-2.167c0,0,0.877-0.348-8.927,3.534
	c-9.805,3.883-22.775,21.394-13.712,44.281c9.062,22.89,31.331,27.243,39.933,23.837C96.924,202.184,97.757,201.854,97.757,201.854z
	 M99.48,145.939L86.429,127.84c0,0-7.027,2.782-8.325,3.296c-9.806,3.882-3.032,1.2-3.032,1.2l0.896,2.131
	C77.063,134.035,91.294,135.202,99.48,145.939z M101.135,198.03l0.804,2.167c0,0-6.772,2.684,3.033-1.199
	c1.297-0.514,8.325-3.296,8.325-3.296l-2.877-22.13C111.804,187.005,102.229,197.599,101.135,198.03z M108.843,127.04
	c5.108,12.904,16.687,41.876,21.958,55.191c2.073,5.234-2.729,7.97-2.729,7.97l28.307-11.207c0,0-19.953-50.661-25.849-65.551
	c-0.929-2.347,1.383-3.261,1.383-3.261l-30.71,12.159C101.203,122.339,106.555,121.264,108.843,127.04z M182.001,168.85
	l-8.39-21.187c-0.503,12.122-1.586,20.316-15.231,26.117l1.514,3.821L182.001,168.85z M208.747,158.156l-51.146-51.883
	c-2.644-2.027-4.468-3.211-9.511-2.8l29.852-11.818l31.142,32.867L208.747,158.156L208.747,158.156z M236.199,147.192
	l-34.389-36.729l1.035-28.668l4.137-1.637l30.392,33.379L236.199,147.192L236.199,147.192z M238.711,73.699l-1.524,33.849
	l-4.279-4.762l1.447-29.396c0.062-1.924-1.882-2.737-4.361-2.387l13.447-5.324C240.85,67.013,239.208,68.326,238.711,73.699z"/>
</svg>
